<svg width="1800" height="1800" viewBox="0 0 1800 1800" fill="none" xmlns="http://www.w3.org/2000/svg">
<path d="M569.4 744.8C572.6 706.4 573.8 672.8 573 644C572.2 614.8 569 588.8 563.4 566C560.6 554.4 560 546.8 561.6 543.2C563.6 539.2 568.6 536.4 576.6 534.8C584.6 533.2 593.6 530.6 603.6 527C614 523.4 624.2 519.2 634.2 514.4C644.2 509.6 653.6 504.4 662.4 498.8C671.2 493.2 678.4 487.6 684 482C692 474 698 470.6 702 471.8C706.4 472.6 710.4 477 714 485C719.6 497.4 721.8 506 720.6 510.8C719.4 515.2 714.4 517.8 705.6 518.6C696 519.4 682.6 522.4 665.4 527.6C648.6 532.4 631.2 538.8 613.2 546.8C609.2 548.8 606 550.6 603.6 552.2C601.6 553.4 600 555 598.8 557C648 554.6 684.6 553.8 708.6 554.6C733 555.4 748.6 557.4 755.4 560.6C764.6 566.2 769.6 571.2 770.4 575.6C771.6 579.6 769.8 584 765 588.8C761 593.2 758 598 756 603.2C754.4 608 752.6 615.4 750.6 625.4C749 633 745.8 638.2 741 641C736.6 643.8 728.8 644.8 717.6 644C705.6 643.2 689.6 643 669.6 643.4C650 643.4 627.4 644 601.8 645.2C602.2 651.2 602.2 657.2 601.8 663.2C601.8 669.2 601.8 675.4 601.8 681.8C634.2 681 662 680.6 685.2 680.6C708.4 680.2 727 680.8 741 682.4C748.2 683.2 753.4 684.8 756.6 687.2C760.2 689.2 762.6 691.8 763.8 695C765 697.8 765.2 701 764.4 704.6C764 708.2 763.4 711.4 762.6 714.2C760.6 723 759.6 731 759.6 738.2C759.6 751 756.6 760.8 750.6 767.6C744.6 774 734.2 776.4 719.4 774.8C712.2 774.4 703.6 774 693.6 773.6C684 773.2 673.6 773 662.4 773C651.2 773 639.8 773.4 628.2 774.2C616.6 774.6 605.6 775.4 595.2 776.6C594.4 782.2 593.6 787.8 592.8 793.4C592 798.6 590.6 805 588.6 812.6C599.4 814.6 610 816.8 620.4 819.2C631.2 821.6 641.6 823.8 651.6 825.8C676.8 830.6 697.4 834.8 713.4 838.4C729.4 841.6 742.6 844.2 753 846.2C765.8 848.2 779.4 850 793.8 851.6C808.6 853.2 825.6 854 844.8 854C854 854.8 859 856.6 859.8 859.4C861 862.2 857 866.4 847.8 872C839 877.6 831.4 881.8 825 884.6C819 887.4 811.4 890 802.2 892.4C795 894.4 787.2 894.8 778.8 893.6C770.8 892.8 759.8 889.8 745.8 884.6C733 880.2 716.8 874.8 697.2 868.4C678 862.4 658.6 856.6 639 851C604.2 840.6 574.2 832.6 549 827C523.8 821.4 503.6 818 488.4 816.8C479.2 816 470.8 815.8 463.2 816.2C455.6 816.2 448 816.8 440.4 818C433.2 819.2 425.6 821 417.6 823.4C410 825.4 401.4 828.2 391.8 831.8C384.2 835 378 835.8 373.2 834.2C368.4 832.2 366 828.4 366 822.8C366 814.8 372.4 808 385.2 802.4C392 800 397.8 798 402.6 796.4C407.4 794.4 411.6 792.4 415.2 790.4C418.8 788 422 785.6 424.8 783.2C428 780.8 431.4 777.8 435 774.2C445.4 764.6 452.4 756.2 456 749C459.6 741.8 461.2 736 460.8 731.6C459.6 726 455.8 722.4 449.4 720.8C443 718.8 435.8 718.2 427.8 719C412.6 721 403 721.4 399 720.2C395.4 718.6 393.6 715.6 393.6 711.2C393.2 709.2 394.4 706.2 397.2 702.2C400.4 697.8 406 691.6 414 683.6C416.8 680.8 420 677.6 423.6 674C427.6 670 431.6 666 435.6 662C439.6 657.6 443.6 653.6 447.6 650C451.6 646 455 642.8 457.8 640.4C462.2 636.8 463.4 633.6 461.4 630.8C459.4 628 452.6 625.6 441 623.6C433 622.4 424.8 622 416.4 622.4C408 622.4 400.2 623.4 393 625.4C383 627.8 376 627.4 372 624.2C368 620.6 368 616.4 372 611.6C376.4 605.2 382.4 600.8 390 598.4C398 596 409.6 595.8 424.8 597.8C427.6 598.6 431.2 599.6 435.6 600.8C440 601.6 444.6 602.4 449.4 603.2C454.2 604 458.8 604.8 463.2 605.6C468 606.4 472.2 607 475.8 607.4C486.6 609 494.6 611.6 499.8 615.2C505 618.4 508 621.6 508.8 624.8C509.6 629.2 507.6 633.8 502.8 638.6C498.4 643 490.8 649.4 480 657.8C469.6 665.8 461.6 672.4 456 677.6C450.8 682.4 447.4 686.4 445.8 689.6C444.6 692.4 444.8 694.4 446.4 695.6C448.4 696.8 451.2 697.6 454.8 698C471.6 700 482.8 704.2 488.4 710.6C494 716.6 496.8 723.6 496.8 731.6C496.8 737.6 494.4 744.6 489.6 752.6C484.8 760.2 476.4 770.4 464.4 783.2C461.2 786.4 459.8 788.6 460.2 789.8C461 791 465.4 791.8 473.4 792.2C479.8 792.6 492 794.4 510 797.6C528 800.8 548.4 804.6 571.2 809C570 803 569 797.8 568.2 793.4C567.8 789 567.4 784.6 567 780.2C567 775.4 567.2 770.4 567.6 765.2C568 759.6 568.6 752.8 569.4 744.8ZM708 702.8C692.8 701.2 676 700.6 657.6 701C639.2 701.4 620.4 702.2 601.2 703.4C600.8 711.4 600.4 719.2 600 726.8C599.6 734.4 599 742.2 598.2 750.2C607.4 751 620.2 751.4 636.6 751.4C653.4 751.4 678.4 751 711.6 750.2C718.8 749.8 723.6 748.4 726 746C728.8 743.6 730.8 737.4 732 727.4C733.2 717.8 732.2 711.6 729 708.8C725.8 706 718.8 704 708 702.8ZM702.6 576.2C692.6 575.4 679 575.2 661.8 575.6C645 575.6 623.8 577.2 598.2 580.4C599 587.2 599.6 594.2 600 601.4C600.4 608.6 600.8 615.8 601.2 623C612.4 623 623.6 623 634.8 623C646 622.6 656.6 622.4 666.6 622.4C676.6 622 685.4 621.6 693 621.2C701 620.8 707.2 620.4 711.6 620C718 619.2 721.8 617.6 723 615.2C724.6 612.4 725.8 606.8 726.6 598.4C727.4 590 726.4 584.6 723.6 582.2C720.8 579.4 713.8 577.4 702.6 576.2ZM512.4 548.6C516.8 551.8 518.2 555 516.6 558.2C515.4 561 511 561.6 503.4 560C484.2 554.8 467.2 550 452.4 545.6C438 541.2 425.6 537.6 415.2 534.8C408 532.4 403.2 529.8 400.8 527C398.8 524.2 401.2 520 408 514.4C415.2 509.2 423.6 506.4 433.2 506C442.8 505.6 451.4 507.8 459 512.6C469.4 519.4 479.2 525.8 488.4 531.8C497.6 537.4 505.6 543 512.4 548.6ZM1405.8 591.2C1403.4 596 1402 600.6 1401.6 605C1401.2 609 1401.8 616 1403.4 626C1405 637.6 1404.6 647.6 1402.2 656C1399.8 664 1396.6 669.6 1392.6 672.8C1388.6 676 1384.4 676.2 1380 673.4C1376 670.6 1374.4 663 1375.2 650.6C1376 634.6 1376.2 621.8 1375.8 612.2C1375.4 602.6 1374 595.2 1371.6 590C1369.2 584.8 1365.2 581.4 1359.6 579.8C1354.4 577.8 1347.4 576.6 1338.6 576.2C1314.6 575.4 1292.4 574.8 1272 574.4C1252 574 1232.4 573.8 1213.2 573.8C1212.8 585.4 1212.6 596.4 1212.6 606.8C1213 617.2 1213.6 626.8 1214.4 635.6C1214.8 645.6 1215 654 1215 660.8C1215 667.2 1214.6 672.6 1213.8 677C1213 681.4 1211.8 685.2 1210.2 688.4C1208.6 691.6 1206.4 694.6 1203.6 697.4C1201.6 698.6 1199.4 699 1197 698.6C1194.6 698.2 1192.2 696.4 1189.8 693.2C1187.8 689.6 1186 684 1184.4 676.4C1183.2 668.8 1183 658.2 1183.8 644.6C1184.6 631.8 1185 619.8 1185 608.6C1185.4 597 1185.6 585.4 1185.6 573.8C1161.6 574.2 1139.4 574.8 1119 575.6C1098.6 576.4 1078.2 577.8 1057.8 579.8C1049.8 580.6 1043.2 581.6 1038 582.8C1032.8 584 1028.6 585.6 1025.4 587.6C1022.6 589.6 1020.6 592.2 1019.4 595.4C1018.2 598.6 1017.4 602.6 1017 607.4C1016.2 617 1015.6 625.8 1015.2 633.8C1014.8 641.8 1014.2 649.8 1013.4 657.8C1012.6 665.8 1011 671.8 1008.6 675.8C1006.2 679.4 1002.8 680.2 998.4 678.2C994 676.2 991 673.6 989.4 670.4C987.8 666.8 987.2 659.2 987.6 647.6C988 636 988.8 624.4 990 612.8C991.2 601.2 992.6 592.6 994.2 587C997 576.6 1003.2 569.2 1012.8 564.8C1022.8 560.4 1034.6 558.6 1048.2 559.4C1053 559.8 1060.2 560.2 1069.8 560.6C1079.4 560.6 1090.2 560.6 1102.2 560.6C1114.6 560.6 1128 560.6 1142.4 560.6C1156.8 560.2 1171.2 559.8 1185.6 559.4V523.4C1164.8 524.2 1145.4 525.6 1127.4 527.6C1109.4 529.2 1095.2 531 1084.8 533C1069.6 536.2 1059.6 536.4 1054.8 533.6C1050.4 530.8 1052 525.4 1059.6 517.4C1072.4 504.6 1089 500 1109.4 503.6C1118.6 505.2 1133.6 506 1154.4 506C1175.6 506 1205.6 505 1244.4 503C1263.6 502.2 1278.2 502.2 1288.2 503C1298.2 503.8 1306 505.8 1311.6 509C1319.6 513.4 1321.8 517.6 1318.2 521.6C1315 525.6 1303.8 526.6 1284.6 524.6C1274.6 523.8 1263.6 523.2 1251.6 522.8C1240 522.4 1227.8 522.2 1215 522.2C1214.6 529 1214.2 535.4 1213.8 541.4C1213.8 547.4 1213.6 553.4 1213.2 559.4C1234.8 559 1254.4 558.6 1272 558.2C1289.6 557.8 1303 557.2 1312.2 556.4C1331.4 555.2 1347.4 555.6 1360.2 557.6C1373 559.6 1383 562.4 1390.2 566C1397.8 569.6 1402.6 573.8 1404.6 578.6C1407 583 1407.4 587.2 1405.8 591.2ZM1301.4 875C1312.6 868.2 1318.2 861 1318.2 853.4C1318.6 845.8 1312.8 836.4 1300.8 825.2C1292 816.8 1283.2 810.6 1274.4 806.6C1266 802.2 1259 800.2 1253.4 800.6C1248.6 801.8 1245.8 803.8 1245 806.6C1244.6 809.4 1246.6 811.8 1251 813.8C1260.2 818.6 1270.4 827.2 1281.6 839.6C1284 843.2 1285.6 846.4 1286.4 849.2C1287.6 851.6 1287.4 854 1285.8 856.4C1284.2 858.8 1281.2 861.2 1276.8 863.6C1272.4 865.6 1266.2 867.8 1258.2 870.2C1252.2 871.8 1243.6 872.6 1232.4 872.6C1221.6 873 1210.2 872.8 1198.2 872C1186.2 871.2 1174.8 870 1164 868.4C1153.6 867.2 1146 865.6 1141.2 863.6C1131.2 859.2 1125.8 855.2 1125 851.6C1124.2 848 1126.4 843.8 1131.6 839C1132.8 837.4 1135 835.4 1138.2 833C1141.4 830.2 1144.8 827.4 1148.4 824.6C1152.4 821.8 1156.4 819 1160.4 816.2C1164.4 813.4 1167.8 811 1170.6 809C1178.2 803.8 1181 798.2 1179 792.2C1183 791.8 1186.8 791.6 1190.4 791.6C1194 791.6 1198 791.4 1202.4 791C1238.4 789.4 1271.2 789.8 1300.8 792.2C1330.4 794.6 1354.8 799.8 1374 807.8C1390.8 815 1404.6 818.2 1415.4 817.4C1426.6 816.6 1436.8 811 1446 800.6C1452.8 793 1455.6 788.2 1454.4 786.2C1453.6 784.2 1449.6 783.4 1442.4 783.8C1438.8 783.8 1433.6 783.6 1426.8 783.2C1420.4 782.8 1413 782.4 1404.6 782C1396.2 781.2 1387.2 780.4 1377.6 779.6C1368 778.4 1358.2 777.2 1348.2 776C1283.8 768.8 1220.2 767 1157.4 770.6C1126.2 772.2 1101 773.8 1081.8 775.4C1062.6 776.6 1046.2 777.2 1032.6 777.2C1017.4 777.6 1005.4 779 996.6 781.4C988.2 783.8 980.6 788 973.8 794C967 800 963.4 805 963 809C962.6 812.6 964.6 816.2 969 819.8C973.4 823 978.4 824.2 984 823.4C989.6 822.2 995.8 820 1002.6 816.8C1015.4 810.8 1033.4 806 1056.6 802.4C1079.8 798.8 1110.6 796 1149 794C1147 799.6 1142.2 805.6 1134.6 812C1127 818 1114.8 827.2 1098 839.6C1088.4 846.4 1084.2 852.2 1085.4 857C1086.6 861.4 1092.2 866.4 1102.2 872C1110.6 876.4 1121 880.4 1133.4 884C1145.8 887.6 1158.4 890.4 1171.2 892.4C1178.8 894 1188.2 895 1199.4 895.4C1211 895.8 1222.8 895.2 1234.8 893.6C1247.2 892.4 1259.2 890.2 1270.8 887C1282.8 884.2 1293 880.2 1301.4 875ZM1312.8 717.2C1315.6 722.4 1315.6 726.2 1312.8 728.6C1310.4 730.6 1302.6 730.8 1289.4 729.2C1276.6 728 1261.8 727.2 1245 726.8C1228.2 726.4 1211.2 726.6 1194 727.4C1176.8 727.8 1160.6 728.6 1145.4 729.8C1130.2 731 1118 732.6 1108.8 734.6C1095.6 737.8 1086.8 738 1082.4 735.2C1078.4 732 1079.8 727.4 1086.6 721.4C1092.2 716.2 1100.4 712.6 1111.2 710.6C1122.4 708.2 1132.8 707.6 1142.4 708.8C1146 709.2 1152.6 709.4 1162.2 709.4C1172.2 709.4 1183 709.4 1194.6 709.4C1206.2 709 1217.6 708.6 1228.8 708.2C1240.4 707.4 1249.6 706.8 1256.4 706.4C1289.2 704 1308 707.6 1312.8 717.2ZM1161 656.6C1166.6 653 1168.6 649.8 1167 647C1165.8 644.2 1160.6 644.4 1151.4 647.6C1147 648.8 1141.4 650.2 1134.6 651.8C1128.2 653.4 1121.4 655 1114.2 656.6C1107 657.8 1100 659 1093.2 660.2C1086.4 661.4 1081 662.2 1077 662.6C1063 664.2 1054.6 666.8 1051.8 670.4C1049 673.6 1049.8 678.4 1054.2 684.8C1057.8 690 1062.8 692.8 1069.2 693.2C1076 693.2 1086.4 690.6 1100.4 685.4C1111.2 681.4 1121.4 677.2 1131 672.8C1140.6 668 1150.6 662.6 1161 656.6ZM1354.8 680.6C1355.6 674.6 1353.8 670 1349.4 666.8C1345.4 663.2 1340.2 660.8 1333.8 659.6C1322.2 657.6 1308.8 655.6 1293.6 653.6C1278.4 651.2 1264.4 649.2 1251.6 647.6C1246 646.8 1242.4 647.8 1240.8 650.6C1239.6 653 1241.8 655.2 1247.4 657.2C1260.2 661.6 1272.4 666.2 1284 671C1296 675.4 1306 679.2 1314 682.4C1324.8 686.8 1333.8 689.2 1341 689.6C1348.2 689.6 1352.8 686.6 1354.8 680.6ZM1339.2 599.6C1336 595.2 1331.4 593 1325.4 593C1319.4 592.6 1313.8 594.2 1308.6 597.8C1305.8 599.8 1300.2 602.8 1291.8 606.8C1283.8 610.4 1274 614.4 1262.4 618.8C1256.8 620.8 1253.2 622.8 1251.6 624.8C1250 626.4 1249.4 627.8 1249.8 629C1250.6 630.2 1252.2 631.2 1254.6 632C1257.4 632.4 1260.6 632.4 1264.2 632C1288.6 629.6 1309.2 626.6 1326 623C1335.2 621 1340.6 618.2 1342.2 614.6C1344.2 610.6 1343.2 605.6 1339.2 599.6ZM1144.2 630.8C1154.2 632.4 1159.6 631.4 1160.4 627.8C1161.2 624.2 1156.4 621 1146 618.2C1136 615 1125.6 611.6 1114.8 608C1104 604 1095.8 600.6 1090.2 597.8C1084.6 593.8 1079 592.6 1073.4 594.2C1067.8 595.8 1063.6 600.2 1060.8 607.4C1059.2 612.2 1060.4 615.8 1064.4 618.2C1068.8 620.2 1076.4 622 1087.2 623.6C1088.8 624 1092 624.6 1096.8 625.4C1101.6 625.8 1106.8 626.4 1112.4 627.2C1118.4 628 1124.2 628.8 1129.8 629.6C1135.8 630 1140.6 630.4 1144.2 630.8ZM794.4 1091.8C797.6 1098.6 797.8 1105.4 795 1112.2C792.2 1119 788.2 1123.4 783 1125.4C781.4 1126.2 779 1127.4 775.8 1129C772.6 1130.6 769 1132.6 765 1135C761 1137.4 756.8 1140 752.4 1142.8C748 1145.6 743.8 1148.4 739.8 1151.2C743 1158.4 743.8 1166.6 742.2 1175.8C741 1185 738.4 1196.2 734.4 1209.4C728.4 1229.8 719.8 1247 708.6 1261C697.4 1275 685.4 1286.6 672.6 1295.8C665.4 1301 658.8 1304 652.8 1304.8C647.2 1305.2 643.4 1303.8 641.4 1300.6C639 1296.2 638.8 1291.6 640.8 1286.8C642.8 1281.6 649.4 1275.2 660.6 1267.6C674.6 1258 686 1247.8 694.8 1237C703.6 1225.8 710.6 1213.2 715.8 1199.2C719.8 1187.6 721.4 1178.2 720.6 1171C719.8 1163.4 714.6 1155.2 705 1146.4C697 1158 688.6 1169.4 679.8 1180.6C671.4 1191.4 663 1201.6 654.6 1211.2C646.2 1220.4 638.2 1228.8 630.6 1236.4C623.4 1244 617.2 1250 612 1254.4C597.6 1266.8 583.6 1275.4 570 1280.2C556.8 1284.6 548.4 1285 544.8 1281.4C540.8 1277.4 540 1273 542.4 1268.2C544.8 1263.4 552.4 1257.6 565.2 1250.8C579.2 1243.2 593 1234.6 606.6 1225C620.2 1215 632.6 1204 643.8 1192C649 1186 653.6 1180.6 657.6 1175.8C661.6 1171 665 1166.4 667.8 1162C671 1157.2 674 1152.4 676.8 1147.6C679.6 1142.8 682.4 1137.6 685.2 1132C681.6 1130 677.8 1128.2 673.8 1126.6C670.2 1124.6 666.2 1122.8 661.8 1121.2C646.2 1138.8 629 1155.2 610.2 1170.4C591.8 1185.2 569.8 1201.4 544.2 1219C530.2 1228.6 519.8 1234 513 1235.2C506.6 1236 501.6 1234.2 498 1229.8C493.2 1223.4 492 1218 494.4 1213.6C497.2 1209.2 505.2 1204.2 518.4 1198.6C534.4 1191.8 547.6 1185.4 558 1179.4C568.4 1173 578.6 1166 588.6 1158.4C602.2 1148.4 612.6 1140.4 619.8 1134.4C627 1128.4 633.6 1122 639.6 1115.2C634.4 1114.4 628.8 1113.4 622.8 1112.2C616.8 1111 610.4 1110 603.6 1109.2C590.8 1117.6 579 1125.4 568.2 1132.6C557.8 1139.4 551 1143.8 547.8 1145.8C534.2 1154.2 522.8 1159.2 513.6 1160.8C504.4 1162.4 498.4 1161.4 495.6 1157.8C492.4 1153.4 492.6 1148.6 496.2 1143.4C500.2 1138.2 510.8 1132 528 1124.8C535.6 1121.6 544.2 1117.6 553.8 1112.8C563.8 1108 573.6 1103 583.2 1097.8C592.8 1092.6 601.4 1087.8 609 1083.4C617 1078.6 622.8 1074.8 626.4 1072C630.4 1068.4 633.8 1065.4 636.6 1063C639.8 1060.2 642.4 1057.4 644.4 1054.6C646.8 1051.4 648.8 1048 650.4 1044.4C652 1040.4 653.6 1035.4 655.2 1029.4C636 1029.4 617.6 1030 600 1031.2C582.8 1032 570.6 1033.6 563.4 1036C547.8 1041.6 537.6 1041.6 532.8 1036C530 1032.8 529.2 1029.4 530.4 1025.8C531.6 1022.2 535.2 1018.2 541.2 1013.8C550.4 1007 557.2 1003 561.6 1001.8C566 1000.2 571 1000.4 576.6 1002.4C579.4 1003.2 582.4 1004 585.6 1004.8C588.8 1005.2 593.2 1005.6 598.8 1006C604.8 1006 612.8 1006.2 622.8 1006.6C632.8 1007 646 1007.4 662.4 1007.8C680.8 1008.2 696.6 1008.6 709.8 1009C723 1009 734 1009 742.8 1009C752 1009 759.4 1008.8 765 1008.4C771 1008 776.2 1007.6 780.6 1007.2C796.2 1006 798.6 1010.8 787.8 1021.6C782.2 1027.2 774.4 1031.2 764.4 1033.6C754.8 1035.6 740.4 1035.4 721.2 1033C716.4 1032.2 710.6 1031.8 703.8 1031.8C697.4 1031.4 690.6 1031 683.4 1030.6C678.2 1042.2 673.2 1051.6 668.4 1058.8C664 1065.6 659.6 1070.6 655.2 1073.8C651.2 1077 646.8 1080.2 642 1083.4C637.2 1086.6 632.2 1090 627 1093.6C641.4 1096.8 655 1100.6 667.8 1105C680.6 1109.4 693.2 1114.8 705.6 1121.2C711.2 1124.4 716 1127.4 720 1130.2C724.4 1133 728 1135.8 730.8 1138.6C742.8 1127 751.8 1117.8 757.8 1111C763.8 1103.8 769.2 1097 774 1090.6C777.2 1085 780.6 1082.2 784.2 1082.2C788.2 1081.8 791.6 1085 794.4 1091.8ZM842.4 1367.2C833.6 1372.8 826 1377 819.6 1379.8C813.6 1382.6 806 1385.2 796.8 1387.6C786.8 1390.4 777.2 1390.8 768 1388.8C759.2 1386.8 750 1383.8 740.4 1379.8C726.4 1374.2 710 1368.6 691.2 1363C672.4 1357.4 653.2 1351.8 633.6 1346.2C619.2 1341.8 605.4 1338.2 592.2 1335.4C579 1332.2 565.8 1329.6 552.6 1327.6C539.4 1325.6 526 1324.2 512.4 1323.4C498.8 1322.2 484.4 1321.6 469.2 1321.6C461.6 1321.6 454.4 1321.8 447.6 1322.2C441.2 1322.2 434.6 1322.8 427.8 1324C421 1325.2 414 1326.8 406.8 1328.8C399.6 1330.8 391.8 1333.6 383.4 1337.2C376.6 1340.4 371 1341 366.6 1339C362.6 1337 360.6 1333.2 360.6 1327.6C360.6 1318.8 366.2 1311.8 377.4 1306.6C389.8 1302.2 398.6 1297.8 403.8 1293.4C409 1289 414.8 1283.4 421.2 1276.6C430.4 1266.6 436.6 1258 439.8 1250.8C443.4 1243.6 445 1237.8 444.6 1233.4C443.8 1227.8 440.4 1224.2 434.4 1222.6C428.4 1220.6 422 1220 415.2 1220.8C401.6 1222.8 393.2 1223 390 1221.4C386.8 1219.8 385.2 1216.8 385.2 1212.4C384.8 1209.2 386 1205.8 388.8 1202.2C391.6 1198.2 396.4 1192.2 403.2 1184.2C411.2 1174.2 418 1166.6 423.6 1161.4C429.2 1155.8 435.4 1148.6 442.2 1139.8C445.4 1136.2 446 1133 444 1130.2C442 1127 436.4 1124.4 427.2 1122.4C416.8 1120.8 408.6 1120.6 402.6 1121.8C397 1122.6 391 1123.4 384.6 1124.2C375.4 1125.4 369 1124.6 365.4 1121.8C362.2 1119 362.2 1115 365.4 1109.8C369.4 1103.4 374.8 1099 381.6 1096.6C388.8 1093.8 399 1093.6 412.2 1096C421.4 1098.8 429.4 1100.8 436.2 1102C443 1103.2 450.4 1104.4 458.4 1105.6C467.6 1107.2 474.4 1109.8 478.8 1113.4C483.6 1117 486.4 1120.4 487.2 1123.6C488 1128 486.4 1132.6 482.4 1137.4C478.4 1142.2 471.4 1149 461.4 1157.8C451.8 1166.2 444.6 1173 439.8 1178.2C435.4 1183.4 432.6 1187.6 431.4 1190.8C430.6 1193.6 431 1195.6 432.6 1196.8C434.2 1198 436.4 1198.8 439.2 1199.2C454.4 1201.2 464.4 1205.6 469.2 1212.4C474 1218.8 476.4 1226 476.4 1234C476.4 1240 474.2 1247.2 469.8 1255.6C465.8 1263.6 458.4 1274 447.6 1286.8C444.8 1290 443.8 1292.4 444.6 1294C445.4 1295.2 449.2 1296 456 1296.4C461.6 1296.8 471.6 1297.6 486 1298.8C500.4 1300 516.8 1301.8 535.2 1304.2C553.6 1306.2 572.6 1308.6 592.2 1311.4C611.8 1314.2 629.8 1317.4 646.2 1321C671.4 1325.8 692.8 1330 710.4 1333.6C728.4 1336.8 740.8 1339.2 747.6 1340.8C758 1343.2 771 1345.2 786.6 1346.8C802.6 1348.4 820.2 1349.2 839.4 1349.2C848.6 1350 853.6 1351.8 854.4 1354.6C855.6 1357.4 851.6 1361.6 842.4 1367.2ZM474.6 1051C478.6 1054.2 480 1057.4 478.8 1060.6C477.6 1063.8 473.6 1064.6 466.8 1063C450 1057.4 435 1052.4 421.8 1048C408.6 1043.6 397.4 1040 388.2 1037.2C381.8 1034.4 377.6 1031.6 375.6 1028.8C374 1026 376 1021.8 381.6 1016.2C388.4 1010.6 396 1007.6 404.4 1007.2C412.8 1006.8 420.4 1009 427.2 1013.8C436.4 1020.6 445 1027.2 453 1033.6C461.4 1039.6 468.6 1045.4 474.6 1051ZM759 1181.2C752.2 1171.2 749.8 1164.4 751.8 1160.8C753.8 1157.2 757.4 1155 762.6 1154.2C768.2 1153 773.8 1154.8 779.4 1159.6C785 1164 789.4 1170 792.6 1177.6C796.6 1186.8 800.6 1196.2 804.6 1205.8C808.6 1215.4 813.8 1229 820.2 1246.6C823 1255 822.6 1259.4 819 1259.8C815.4 1260.2 810.8 1256.8 805.2 1249.6C794 1233.6 785 1220.8 778.2 1211.2C771.8 1201.2 765.4 1191.2 759 1181.2ZM1426.2 1303C1419.4 1312.2 1412.4 1317.4 1405.2 1318.6C1398.4 1319.4 1388.4 1317 1375.2 1311.4C1370.8 1309.8 1366 1308.4 1360.8 1307.2C1356 1305.6 1350.6 1304.4 1344.6 1303.6C1343.8 1307.2 1343.2 1311 1342.8 1315C1342.8 1319 1342.4 1323.2 1341.6 1327.6C1339.2 1348 1335 1361 1329 1366.6C1323 1372.6 1313.6 1374 1300.8 1370.8C1292.4 1368.4 1278.8 1366.8 1260 1366C1241.6 1365.6 1221.6 1365.6 1200 1366C1178.8 1366.8 1158.2 1368 1138.2 1369.6C1118.2 1371.6 1102.8 1373.8 1092 1376.2C1075.2 1379.4 1064.6 1379.2 1060.2 1375.6C1055.8 1372 1056.8 1366.2 1063.2 1358.2C1068.8 1350.6 1073.8 1346.2 1078.2 1345C1082.6 1343.4 1089.4 1343 1098.6 1343.8C1107.8 1344.6 1127 1345 1156.2 1345C1185.4 1345 1226 1344.2 1278 1342.6C1286.4 1342.2 1293 1341.8 1297.8 1341.4C1302.6 1340.6 1306.2 1339.6 1308.6 1338.4C1311 1336.8 1312.6 1334.6 1313.4 1331.8C1314.2 1329 1314.8 1325.2 1315.2 1320.4C1315.6 1316.8 1315.8 1313.4 1315.8 1310.2C1316.2 1306.6 1316.6 1303 1317 1299.4C1305 1298.2 1291.4 1297.4 1276.2 1297C1261.4 1296.6 1244.8 1296.6 1226.4 1297C1206.4 1297.4 1185.4 1298.4 1163.4 1300C1141.8 1301.2 1121.4 1302.8 1102.2 1304.8C1083 1306.4 1066 1308.2 1051.2 1310.2C1036.8 1312.2 1027 1314.2 1021.8 1316.2C993.8 1327.4 984 1323.6 992.4 1304.8C997.2 1294.4 1002.8 1287.8 1009.2 1285C1015.6 1282.2 1024.2 1281.2 1035 1282C1044.2 1282.8 1058 1283 1076.4 1282.6C1095.2 1281.8 1116 1280.4 1138.8 1278.4C1162.8 1276.4 1190.2 1275.4 1221 1275.4C1251.8 1275 1284.2 1275.4 1318.2 1276.6C1318.6 1274.6 1318.8 1272.6 1318.8 1270.6C1318.8 1268.2 1319 1265.8 1319.4 1263.4C1319.8 1258.2 1319.8 1254 1319.4 1250.8C1319.4 1247.6 1318.2 1245.2 1315.8 1243.6C1313.8 1241.6 1310.6 1240.4 1306.2 1240C1302.2 1239.2 1296.4 1238.6 1288.8 1238.2C1272 1237.8 1253.6 1237.8 1233.6 1238.2C1213.6 1238.2 1194.2 1238.6 1175.4 1239.4C1157 1240.2 1140.4 1241.4 1125.6 1243C1110.8 1244.2 1100.2 1245.6 1093.8 1247.2C1077 1251.6 1066.8 1251.8 1063.2 1247.8C1059.6 1243.4 1061.2 1237.2 1068 1229.2C1074 1222.4 1080 1218.4 1086 1217.2C1092.4 1215.6 1100 1215.4 1108.8 1216.6C1111.6 1217 1117.4 1217.4 1126.2 1217.8C1135.4 1217.8 1146.2 1218 1158.6 1218.4C1171 1218.4 1184.4 1218.4 1198.8 1218.4C1213.6 1218 1228 1217.8 1242 1217.8C1256 1217.4 1269.2 1217.2 1281.6 1217.2C1294 1216.8 1304.2 1216.4 1312.2 1216C1331.8 1215.2 1345.4 1217.8 1353 1223.8C1361 1229.8 1363 1238 1359 1248.4C1357 1253.2 1355.2 1258 1353.6 1262.8C1352.4 1267.6 1351.2 1272.8 1350 1278.4C1354.4 1278.4 1358.4 1278.6 1362 1279C1366 1279 1370.2 1279.2 1374.6 1279.6C1393.4 1281.6 1410.6 1282.2 1426.2 1281.4C1433 1281 1436.4 1282.2 1436.4 1285C1436.4 1287.8 1433 1293.8 1426.2 1303ZM1420.2 1097.8C1419 1105.8 1418 1115 1417.2 1125.4C1416.8 1135.8 1416.2 1146.2 1415.4 1156.6C1414.6 1169 1413.4 1177 1411.8 1180.6C1410.2 1184.2 1407.2 1186.2 1402.8 1186.6C1399.2 1187 1396.2 1185.6 1393.8 1182.4C1391.4 1178.8 1389.8 1172 1389 1162C1388.6 1157.2 1388.4 1150.8 1388.4 1142.8C1388.4 1134.4 1388 1126.2 1387.2 1118.2C1386.8 1113 1385.8 1108.6 1384.2 1105C1382.6 1101 1379.8 1097.6 1375.8 1094.8C1371.8 1092 1366.2 1090 1359 1088.8C1351.8 1087.2 1342.6 1086.2 1331.4 1085.8C1314.6 1085 1296.6 1084.6 1277.4 1084.6C1258.6 1084.2 1239 1084 1218.6 1084C1218.6 1093.2 1218.6 1102.2 1218.6 1111C1218.6 1119.8 1219 1128.8 1219.8 1138C1220.6 1166.4 1218.4 1185.2 1213.2 1194.4C1208.4 1203.6 1203.4 1205.6 1198.2 1200.4C1196.2 1198.4 1194.6 1196.4 1193.4 1194.4C1192.2 1192 1191.2 1188.6 1190.4 1184.2C1190 1179.8 1189.8 1174 1189.8 1166.8C1189.8 1159.2 1190 1149 1190.4 1136.2C1190.8 1125.8 1191 1116.6 1191 1108.6C1191.4 1100.2 1191.8 1092.2 1192.2 1084.6C1168.2 1085 1145.4 1085.8 1123.8 1087C1102.6 1087.8 1083 1089.2 1065 1091.2C1058.2 1092 1052.6 1093 1048.2 1094.2C1044.2 1095 1041 1096.4 1038.6 1098.4C1036.2 1100.4 1034.4 1103.2 1033.2 1106.8C1032 1110 1031 1114.6 1030.2 1120.6C1028.2 1133.4 1027 1149 1026.6 1167.4C1026.2 1177 1024.2 1184.6 1020.6 1190.2C1017 1195.4 1013 1197.8 1008.6 1197.4C1002.6 1196.6 998.6 1193.6 996.6 1188.4C995 1182.8 995.2 1174 997.2 1162C999.2 1150 1000.8 1137 1002 1123C1003.2 1109 1004.2 1097.4 1005 1088.2C1005.8 1079 1007.8 1073.4 1011 1071.4C1014.6 1069 1021.8 1068.2 1032.6 1069C1041.8 1069.8 1054.8 1070 1071.6 1069.6C1088.4 1069.2 1107.6 1068.6 1129.2 1067.8C1135.2 1067.4 1143.6 1067.2 1154.4 1067.2C1165.6 1067.2 1178.2 1067 1192.2 1066.6C1192.2 1060.2 1192 1053.8 1191.6 1047.4C1191.6 1040.6 1191.4 1033.2 1191 1025.2C1166.2 1026 1144.4 1027.8 1125.6 1030.6C1107.2 1033.4 1095.8 1036.4 1091.4 1039.6C1085 1044.8 1078.8 1046.8 1072.8 1045.6C1066.8 1044 1063 1039.4 1061.4 1031.8C1059.4 1023.4 1060 1017.6 1063.2 1014.4C1066.8 1011.2 1073.4 1010 1083 1010.8C1086.2 1011.2 1090.4 1011.4 1095.6 1011.4C1101.2 1011.4 1107 1011.2 1113 1010.8C1119.4 1010.4 1125.8 1010 1132.2 1009.6C1138.6 1008.8 1144.6 1008 1150.2 1007.2C1155 1006.8 1162.8 1006.6 1173.6 1006.6C1184.4 1006.2 1196.4 1006.2 1209.6 1006.6C1223.2 1006.6 1237.2 1006.8 1251.6 1007.2C1266.4 1007.6 1280 1008 1292.4 1008.4C1304 1009.2 1313.2 1009.6 1320 1009.6C1327.2 1009.6 1332.6 1009.4 1336.2 1009C1341.4 1008.2 1344.4 1009.2 1345.2 1012C1346.4 1014.4 1344.8 1018.2 1340.4 1023.4C1332.4 1032.2 1325.6 1037.2 1320 1038.4C1314.4 1039.2 1306.4 1038 1296 1034.8C1286.4 1032 1275 1030 1261.8 1028.8C1249 1027.2 1235 1026 1219.8 1025.2C1219.4 1032.8 1219.2 1040 1219.2 1046.8C1219.2 1053.2 1219 1059.8 1218.6 1066.6C1233.4 1066.6 1248.2 1066.6 1263 1066.6C1278.2 1066.6 1292.4 1066.8 1305.6 1067.2C1319.2 1067.2 1331.2 1067.2 1341.6 1067.2C1352.4 1067.2 1360.6 1067.2 1366.2 1067.2C1378.2 1067.6 1387.8 1068.6 1395 1070.2C1402.6 1071.4 1408.4 1073.2 1412.4 1075.6C1416.4 1078 1418.8 1081 1419.6 1084.6C1420.8 1088.2 1421 1092.6 1420.2 1097.8ZM1338.6 1112.8C1335.4 1108.4 1330.4 1106.2 1323.6 1106.2C1317.2 1105.8 1312 1107.4 1308 1111C1305.2 1113.8 1300.6 1116.6 1294.2 1119.4C1287.8 1121.8 1277 1125.8 1261.8 1131.4C1249.8 1136.2 1245 1139.8 1247.4 1142.2C1249.8 1144.6 1255.2 1145.2 1263.6 1144C1274.8 1143.2 1286 1142 1297.2 1140.4C1308.8 1138.4 1318.2 1137 1325.4 1136.2C1334.2 1135 1339.6 1132.4 1341.6 1128.4C1343.6 1124 1342.6 1118.8 1338.6 1112.8ZM1144.2 1144C1154.2 1145.2 1159.8 1143.8 1161 1139.8C1162.2 1135.4 1157.2 1131.6 1146 1128.4C1136 1125.2 1125.6 1121.8 1114.8 1118.2C1104 1114.6 1095.8 1111.6 1090.2 1109.2C1084.6 1105.2 1079 1104.6 1073.4 1107.4C1067.8 1109.8 1063.6 1114.4 1060.8 1121.2C1059.2 1125.6 1060.4 1129 1064.4 1131.4C1068.8 1133.4 1076.4 1135.2 1087.2 1136.8C1088.8 1137.2 1092 1137.8 1096.8 1138.6C1101.6 1139 1106.8 1139.6 1112.4 1140.4C1118.4 1141.2 1124.2 1142 1129.8 1142.8C1135.8 1143.2 1140.6 1143.6 1144.2 1144ZM1161.6 1165.6C1167.2 1162.4 1169.2 1159.2 1167.6 1156C1166 1152.4 1160.6 1152.2 1151.4 1155.4C1147 1157 1141.2 1158.8 1134 1160.8C1127.2 1162.4 1120 1164 1112.4 1165.6C1105.2 1166.8 1098.2 1168 1091.4 1169.2C1085 1170 1080.2 1170.4 1077 1170.4C1064.2 1170.4 1055.8 1172.8 1051.8 1177.6C1047.8 1182.4 1048.6 1187.6 1054.2 1193.2C1058.6 1197.2 1064.4 1199.4 1071.6 1199.8C1079.2 1199.8 1088.8 1197.6 1100.4 1193.2C1107.6 1190.8 1113.8 1188.6 1119 1186.6C1124.6 1184.6 1129.6 1182.6 1134 1180.6C1138.8 1178.6 1143.2 1176.4 1147.2 1174C1151.6 1171.6 1156.4 1168.8 1161.6 1165.6ZM1354.2 1189C1355 1183.4 1353.2 1178.8 1348.8 1175.2C1344.8 1171.2 1339.6 1168.6 1333.2 1167.4C1322 1165.4 1308.6 1163.4 1293 1161.4C1277.8 1159.4 1263.8 1157.6 1251 1156C1245.4 1155.2 1241.8 1156.2 1240.2 1159C1239 1161.8 1241.2 1164.2 1246.8 1166.2C1259.6 1170.6 1271.8 1175 1283.4 1179.4C1295.4 1183.8 1305.4 1187.6 1313.4 1190.8C1324.2 1195.2 1333.2 1197.4 1340.4 1197.4C1347.6 1197.4 1352.2 1194.6 1354.2 1189Z" fill="#606060"/>
</svg>
