<svg width="1024" height="1024" viewBox="0 0 1024 1024" fill="none" xmlns="http://www.w3.org/2000/svg">
<path fill-rule="evenodd" clip-rule="evenodd" d="M535.447 3.99909C528.588 9.02732 513.154 28.4517 496.582 52.9087C484.016 71.4537 483.172 72.3308 477.883 72.3308C462.322 72.3308 419.843 83.5956 393.969 94.5818C347.835 114.173 294.541 151.914 257.735 191.059C205.436 246.681 157.252 334.832 141.261 404.141C135.865 427.528 133.997 443.837 133.997 467.577C133.997 497.382 138.228 519.878 147.556 539.667C149.858 544.55 151.587 548.837 151.397 549.19C151.208 549.546 148.961 552.074 146.404 554.811C129.491 572.917 94.1279 621.366 75.077 652.533C59.3071 678.332 33.0422 734.253 24.1846 760.889C10.6836 801.484 2.78731 843.183 0.55145 885.678C-1.24613 919.859 1.31121 946.201 8.80853 970.724C20.1532 1007.84 35.1086 1023.93 58.3231 1024C82.5361 1024.07 102.491 1007.48 130.646 963.852C170.409 902.237 203.468 830.506 274.99 650.659C287.857 618.305 297.468 595.984 298.763 595.449C299.959 594.955 306.054 592.898 312.308 590.877C345.802 580.048 392.27 546.184 404.249 523.872C408.253 516.414 408.848 510.293 406.314 502.621C403.433 493.893 398.162 496.005 383.247 511.859C364.223 532.084 342.171 547.526 322.128 554.662C318.432 555.977 314.301 557.576 312.946 558.214C310.901 559.179 311.68 556.282 317.533 541.169C328.529 512.774 361.558 430.195 373.758 400.587L384.788 373.825L403.333 356.482C464.639 299.156 508.883 249.176 529.569 213.88C547.391 183.472 556.894 146.204 553.581 119.719C552.081 107.724 543.669 90.4132 535.86 83.2491C532.601 80.2602 529.925 77.1398 529.916 76.3196C529.889 74.0193 545.377 50.4636 550.25 45.3937L554.579 40.8896L562.443 46.6108C579.582 59.0772 593.762 82.4904 599.608 107.974C603.618 125.453 605.106 148.993 603.476 169.165C601.211 197.181 594.453 232.958 584.003 272.263L578.945 291.284L551.062 330.615C503.072 398.311 467.567 457.027 441.384 512C424.405 547.649 415.107 572.529 409.462 597.427C405.527 614.788 405.016 623.895 407.424 633.776C410.022 644.431 414.184 647.514 424.381 646.339C438.355 644.727 451.106 633.64 470.994 605.808C516.303 542.404 579.983 403.648 609.839 303.27C615.155 285.394 615.241 285.236 630.166 265.759C670.361 213.308 698.946 184.167 710.2 184.167C715.261 184.167 715.067 187.493 708.389 215.117C700.771 246.635 688.015 289.757 657.547 387.006C607.932 545.362 599.546 580.564 607.833 595.686C611.799 602.922 617.67 602.455 625.844 594.251C631.194 588.883 635.966 580.246 652.203 546.544C687.085 474.144 716.659 423.14 775.842 333.321C840.631 234.993 897.597 164.35 940.271 129.409C953.644 118.46 954.222 118.227 956.149 123.001C959.092 130.295 963.508 128.108 976.328 113.013C982.934 105.237 995.083 92.3363 1003.33 84.3433C1019.97 68.206 1024 61.4038 1024 49.4308C1024 20.9784 997.418 29.2279 948.541 72.8483C930.659 88.8058 893.535 128.426 874.116 152.278C808.482 232.888 723.856 360.363 680.38 444.111C673.601 457.167 668.461 466.436 668.955 464.708C669.449 462.978 677.051 437.881 685.846 408.935C733.468 252.216 746.255 203.359 746.391 177.588C746.563 145.243 730.026 132.376 708.209 147.881C692.094 159.335 670.027 181.233 643.261 212.332C634.706 222.27 630.24 226.43 630.684 224.046C638.094 184.276 639.968 155.135 636.959 126.448C631.368 73.1378 611.536 36.039 576.354 13.0863C570.418 9.21151 564.095 4.67668 562.303 3.00572C557.559 -1.42167 542.057 -0.847136 535.447 3.99909ZM454.187 123.19C430.558 166.858 392.015 251.687 361.719 326.703L347.107 362.885L333.325 374.759C288.471 413.411 226.461 470.528 197.409 499.954L182.732 514.817L180.705 510.12C177.099 501.757 174.336 487.321 173.176 470.767C172.233 457.327 172.324 452.194 173.71 440.528C177.487 408.731 188.219 374.323 206.872 334.198C242.356 257.864 288.657 200.387 349.004 157.758C385.476 131.994 430.254 111.949 460.906 107.671C461.92 107.528 458.953 114.383 454.187 123.19ZM524.363 114.199C531.008 121.188 532.368 127.297 530.563 142.055C526.771 173.069 508.506 204.205 468.394 248.038C452.809 265.07 425.15 292.972 418.38 298.494C412.752 303.083 467.23 186.629 494.753 135.235L509.742 107.248L514.543 108.083C517.183 108.544 521.602 111.296 524.363 114.199ZM550.006 381.695C547.899 388.925 526.961 441.528 516.126 466.811C493.206 520.293 462.856 576.402 449.158 590.618C442.852 597.166 436.863 601.258 436.875 599.012C436.899 594.927 443.335 575 449.763 559.113C463.855 524.286 492.55 472.307 539.202 397.107C550.747 378.498 551.073 378.031 550.006 381.695ZM304.821 475.043C296.367 497.781 285.552 527.135 280.788 540.272L272.125 564.159L256.038 562.885C239.528 561.58 226.567 557.729 214.468 550.537C202.638 543.504 202.506 544.083 219.995 526.312C248.711 497.13 319.082 431.344 319.846 432.967C320.036 433.37 313.274 452.303 304.821 475.043ZM196.309 588.53C210.029 594.98 223.148 598.278 243.434 600.372L258.289 601.907L237.806 657.825C198.122 766.163 168.084 840.512 145.225 886.979C133.351 911.118 112.064 944.421 99.6653 958.258C85.081 974.533 70.4038 979.331 56.4852 972.373C44.5027 966.382 37.8789 955.256 33.0629 933.029C30.5676 921.512 30.1583 916.543 29.781 893.189C29.3954 869.26 29.6342 864.414 32.0923 846.235C43.4008 762.597 84.7265 679.514 158.097 592.907L173.41 574.829L179.061 578.954C182.169 581.222 189.93 585.531 196.309 588.53Z" fill="#CDCECD"/>
</svg>
