<svg xmlns="http://www.w3.org/2000/svg" viewBox="0 0 1000 1000" fill="none">
<path id="track" d="M485.4 40L500.5 43L513.1 40.7L523.3 40.4L527.8 41.6L533 45.6L538 52.3L545.2 59L550.4 60.7L554.3 60.6L560.7 64.7L571.1 76.7L576.4 79.8L586.3 91.1L597.3 107.8L586.9 112.2L587.4 114.1L585.3 114.5L583.8 113.6L584 116L590.2 124.8L593.6 131.8L589.9 130.1L585.1 125.5L578 121.7L577 123.1L580.8 127.3L574.9 125.8L577.6 130.2L570.5 148.7L552.2 147.9L538.7 153.5L536.3 157.9L529.2 165.3L523.7 183.4L525.4 198.8L524.3 207.2L527.4 224.5L526.7 229.6L528.1 234.6L528 238.6L534.3 247.4L533.5 255.3L534.3 259.9L528.6 262.8L528.3 267.5L530.6 274.2L531.5 283L535.3 287.9L536.3 291.7L535.6 293.3L537 304.1L540 311.5L539.7 328L535.9 332.1L533.1 333.5L530.1 343.7L526.1 346.9L524.5 350.7L524.5 354.5L521.2 360.1L511.6 367.3L508.4 372.6L503.3 375.3L489.1 392.1L484.2 400.3L483.1 405.1L480.9 409.2L477.4 412.1L471.7 411.8L466.6 419.7L453.7 425.8L449.8 440.3L435.7 462.2L438.4 465.2L438.3 468.2L434.5 472.4L433.4 477.5L425 485.7L416.6 499.1L411 503L405.7 503.6L396.4 510.8L391.1 519L387 530.7L391.3 539.2L392.1 545.8L390.9 554.6L391.4 559.8L389.8 564L389.2 577.2L394.9 594.4L401.2 596.3L406.1 606.1L421.3 649.8L430.8 659.6L448.9 664.6L456.6 674.6L462.3 678.5L472.8 689.8L479.5 694.7L481.8 695.3L488.1 700.8L489 708.1L492.8 719.6L496.4 724.9L495.1 726.6L495.1 729.8L496.4 736.5L497.9 739.1L497.4 742.8L499.7 741.7L502.4 751.7L502 753.4L495.3 753.1L496.9 754.6L498.6 759.9L500.7 760.8L501.7 762.7L502.9 769.1L505.2 768.9L504.1 776.6L507.7 784.4L510 794.8L511.5 796.5L519.1 799.5L520.4 803L522.8 802.4L524.7 803.2L528.8 807.1L532.5 806.1L536.5 807.3L542.7 813.3L551.9 816.9L556.8 822.6L562.1 826.4L561.3 828.2L563.2 829.2L567 834.9L565.9 840.9L570.3 855.8L574.2 861.6L576 861.3L580.9 872.4L585.6 877.9L589.4 878.2L593.2 882L603.4 886.3L604.6 890.9L608.3 894.2L609.9 893.8L615.7 901.5L617.6 906.4L617.1 912L618.2 913.4L626.2 918.3L633.1 919.3L635 920.4L637.2 927.3L644.2 934.3L650.6 936.6L659.9 937.8L667.7 942.6L669 947L670.6 946.4L674.5 951.2L679.3 953.4L686.5 951.1L693.2 943.4L695.5 945.6L699.6 946.7L708.4 953.4L717.3 956.2L723.1 960L725.9 958.7L734.2 959.4L736.2 958.7L734.2 959.4L725.9 958.7L723.1 960L717.3 956.2L708.4 953.4L699.6 946.7L695.5 945.6L693.2 943.4L686.5 951.1L679.3 953.4L674.5 951.2L670.6 946.4L669 947L667.7 942.6L659.9 937.8L650.6 936.6L644.2 934.3L637.2 927.3L635 920.4L633.1 919.3L626.2 918.3L619.4 914.6L617.1 912L617.6 906.4L615.7 901.5L609.9 893.8L608.3 894.2L604.6 890.9L603.4 886.3L593.2 882L589.4 878.2L585.6 877.9L580.9 872.4L576 861.3L574.2 861.6L570.3 855.8L565.9 840.9L567 834.9L563.2 829.2L561.3 828.2L562.1 826.4L556.8 822.6L551.9 816.9L542.7 813.3L538 808.5L534.5 806.7L530.8 806.4L515.2 830.6L506 840.5L487.4 849.9L480.5 855.5L476.8 855.5L474.5 842.9L470.4 837.9L463.7 838.2L453.4 823.6L430.7 812.6L415.6 812.9L402.7 799.7L382.8 810.4L363.2 813.7L336.2 833.6L332 834.9L323.2 833.3L321.6 831.9L320.5 818L318.2 812.3L318.2 808L320.3 801.8L319.2 794L321.7 783.3L321.1 775.5L321.8 770.4L319.2 761.6L320 758.1L316 749.9L315.1 745.4L311.8 743.9L309.4 735.9L307.8 735.1L302.8 735.5L299.6 739.2L294.5 740.1L290.1 742.6L288.1 739L281.1 734.6L278.2 736.6L274.8 736L271 737.4L268 740.4L263.8 732.1L266.1 731L265.8 727.9L268.5 722.9L279.4 725.6L284.7 721.7L288.7 720.9L295.6 717.1L316.5 694.2L323.8 677.1L328.7 669.6L332.5 666.6L338.6 655L339.2 650.4L335.8 647.5L338.5 638.2L337 635.1L351.3 605.6L350.6 601.9L353.9 595.2L355.1 582.1L359 570.7L362.4 568.6L366.5 558.4L378.9 545.3L387 530.7L391.1 519L396.4 510.8L405.7 503.6L411 503L416.6 499.1L425 485.7L433.4 477.5L434.5 472.4L438.3 468.2L438.4 465.2L435.7 462.2L449.8 440.3L453.7 425.8L466.6 419.7L471.7 411.8L477.4 412.1L480.9 409.2L483.1 405.1L484.2 400.3L489.1 392.1L503.3 375.3L508.4 372.6L511.6 367.3L521.2 360.1L524.5 354.5L524.5 350.7L526.1 346.9L530.1 343.7L533.1 333.5L535.9 332.1L539.7 328L540 311.5L537 304.1L535.6 293.3L536.3 291.7L535.3 287.9L531.5 283L530.6 274.2L528.3 267.5L528.6 262.8L534.3 259.9L533.5 255.3L534.3 247.4L528 238.6L528.1 234.6L526.7 229.6L527.4 224.5L524.3 207.2L525.4 198.8L523.7 183.4L529.2 165.3L536.3 157.9L538.7 153.5L552.2 147.9L570.5 148.7L577.6 130.2L574.9 125.8L580.8 127.3L577 123.1L578 121.7L585.1 125.5L589.9 130.1L593.6 131.8L590.2 124.8L584 116L583.8 113.6L585.3 114.5L587.4 114.1L586.9 112.2L597.3 107.8L586.3 91.1L576.4 79.8L571.1 76.7L560.7 64.7L554.3 60.6L550.4 60.7L545.2 59L538 52.3L533 45.6L527.8 41.6L523.3 40.4L513.1 40.7L500.5 43L490.1 40.5" stroke="currentColor" stroke-width="7" stroke-linecap="round" stroke-linejoin="round"/>
</svg>