<svg xmlns="http://www.w3.org/2000/svg" viewBox="0 0 1000 1000" fill="none">
<path d="M486 60L526.6 61.5L558.1 83.6L593.1 124.8L580.2 130.4L589.5 147.8L574.6 138.2L567.4 164L549.9 163.2L528 179.9L523.3 220L538 335.5L481.7 413.1L455.7 429L440.9 469.6L420.3 499.1L395.8 518.2L394 573.8L424.7 643.3L451.1 657.4L488.6 692.1L509.6 782L559.4 812.2L577.4 856.2L598.9 869.5L613.1 895.4L629.1 902.1L638 915.4L671.5 933.7L684.8 924.1L713.4 940L725.9 938.8L713.4 940L684.8 924.1L671.5 933.7L614.2 896.6L598.9 869.5L577.4 856.2L559.4 812.2L533 793.3L505.7 825.7L481.3 840L455.4 809.5L419.3 799.3L406.9 786.6L369.2 800L343.3 819.1L330.9 818.8L323.1 734.7L316.2 724.8L299.2 732L290.6 724.4L278.1 729.9L274.1 722.1L278.6 713.2L289 715.8L304.5 707.6L324.5 685.8L345.6 648.2L344.1 629.2L365.1 567.6L400.9 510.3L420.3 499.1L436.3 478.4L455.7 429L481.7 413.1L538 335.5L522.7 197.1L537 168.5L567.4 164L574.6 138.2L589.5 147.8L580.2 130.4L593.1 124.8L558.1 83.6L526.6 61.5L490.6 60.5" stroke="currentColor" stroke-width="16" stroke-linecap="round" stroke-linejoin="round"/>
</svg>